<svg xmlns="http://www.w3.org/2000/svg" viewBox="0 0 31.5 20"><rect width="31.5" height="14" fill="#6e6e00" rx="1.5" ry="1.5"></rect><path d="M5.13-5.92L5.13-7.16C4.74-7.38 4.04-7.51 3.51-7.51C1.54-7.51 0.36-5.75 0.36-3.36C0.36-1.20 1.32 0.11 2.95 0.11C4.46 0.11 5.52-1.02 5.52-2.57C5.52-4.03 4.57-4.75 3.43-4.75C2.77-4.75 2.25-4.51 1.84-4.26C1.99-5.70 2.57-6.34 3.59-6.34C4.06-6.34 4.66-6.20 5.13-5.92ZM2.97-3.65C3.61-3.65 4.08-3.32 4.08-2.47C4.08-1.69 3.74-1.02 3.01-1.02C2.20-1.02 1.84-1.87 1.81-3.30C2.16-3.49 2.55-3.65 2.97-3.65Z" fill="#ffffff" transform="matrix(1,0,0,1,4.556789999999998,10.71799)"></path><path d="M8.96 0L10.27 0L10.27-1.77L10.95-1.77L11.11-3.00L10.27-3.00L10.27-5.10L8.96-4.47L8.96-3.00L7.45-3.00L9.28-7.40L7.90-7.40L6.00-2.77L6.00-1.77L8.96-1.77Z" fill="#ffffff" transform="matrix(1,0,0,1,4.556789999999998,10.71799)"></path><path d="M11.57 0L16.10 0L16.28-1.29L13.28-1.29L14.21-2.20C15.43-3.38 15.97-4.23 15.97-5.26C15.97-6.63 15.04-7.51 13.68-7.51C12.93-7.51 12.21-7.25 11.66-6.78L11.66-5.45C12.31-5.97 12.77-6.17 13.32-6.17C14.09-6.17 14.54-5.74 14.54-4.94C14.54-4.30 14.21-3.81 13.35-2.88L11.57-1.02Z" fill="#ffffff" transform="matrix(1,0,0,1,4.556789999999998,10.71799)"></path><path d="M19.39 0.11C21.16 0.11 22.02-1.28 22.02-3.80C22.02-6.05 21.47-7.54 19.50-7.54C17.73-7.54 16.93-6.12 16.93-3.59C16.93-1.08 17.71 0.11 19.39 0.11ZM19.49-1.00C18.59-1.00 18.31-1.99 18.31-3.70C18.31-5.27 18.57-6.44 19.45-6.44C20.36-6.44 20.62-5.26 20.62-3.77C20.62-2.13 20.39-1.00 19.49-1.00Z" fill="#ffffff" transform="matrix(1,0,0,1,4.556789999999998,10.71799)"></path></svg>